<mxfile host="www.draw.io" modified="2020-01-13T06:36:18.332Z" agent="Mozilla/5.0 (X11; Linux x86_64; rv:68.0) Gecko/20100101 Firefox/68.0" etag="oRD2NENquNdu7-C0o6E2" version="12.5.1" type="github">
  <diagram id="VGJH4sr8CrQg2eb5v-pZ" name="Page-1">
    <mxGraphModel dx="768" dy="606" grid="1" gridSize="10" guides="1" tooltips="1" connect="1" arrows="1" fold="1" page="1" pageScale="1" pageWidth="850" pageHeight="1100" math="0" shadow="0">
      <root>
        <mxCell id="0"/>
        <mxCell id="1" parent="0"/>
        <mxCell id="nBfQ12rVYIrD_7408x3T-1" value="Usuario" style="shape=umlActor;verticalLabelPosition=bottom;labelBackgroundColor=#ffffff;verticalAlign=top;html=1;outlineConnect=0;" parent="1" vertex="1">
          <mxGeometry x="110" y="140" width="30" height="60" as="geometry"/>
        </mxCell>
        <mxCell id="nBfQ12rVYIrD_7408x3T-16" style="edgeStyle=orthogonalEdgeStyle;rounded=0;orthogonalLoop=1;jettySize=auto;html=1;endArrow=none;endFill=0;fillColor=#dae8fc;strokeColor=#00CCCC;" parent="1" source="nBfQ12rVYIrD_7408x3T-2" edge="1">
          <mxGeometry relative="1" as="geometry">
            <mxPoint x="140" y="168" as="targetPoint"/>
          </mxGeometry>
        </mxCell>
        <mxCell id="nBfQ12rVYIrD_7408x3T-2" value="IUsuario" style="shape=umlBoundary;whiteSpace=wrap;html=1;" parent="1" vertex="1">
          <mxGeometry x="240" y="128" width="100" height="80" as="geometry"/>
        </mxCell>
        <mxCell id="by7-wM_vD5y1pT4y-xTU-1" style="rounded=0;orthogonalLoop=1;jettySize=auto;html=1;entryX=1.02;entryY=0.588;entryDx=0;entryDy=0;entryPerimeter=0;endArrow=none;endFill=0;" edge="1" parent="1" source="nBfQ12rVYIrD_7408x3T-4" target="nBfQ12rVYIrD_7408x3T-2">
          <mxGeometry relative="1" as="geometry"/>
        </mxCell>
        <mxCell id="by7-wM_vD5y1pT4y-xTU-2" style="edgeStyle=none;rounded=0;orthogonalLoop=1;jettySize=auto;html=1;entryX=1;entryY=0.375;entryDx=0;entryDy=0;entryPerimeter=0;endArrow=none;endFill=0;" edge="1" parent="1" source="nBfQ12rVYIrD_7408x3T-4" target="nBfQ12rVYIrD_7408x3T-5">
          <mxGeometry relative="1" as="geometry"/>
        </mxCell>
        <mxCell id="by7-wM_vD5y1pT4y-xTU-3" style="edgeStyle=none;rounded=0;orthogonalLoop=1;jettySize=auto;html=1;entryX=1.01;entryY=0.4;entryDx=0;entryDy=0;entryPerimeter=0;endArrow=none;endFill=0;" edge="1" parent="1" source="nBfQ12rVYIrD_7408x3T-4" target="nBfQ12rVYIrD_7408x3T-13">
          <mxGeometry relative="1" as="geometry"/>
        </mxCell>
        <mxCell id="by7-wM_vD5y1pT4y-xTU-4" style="edgeStyle=none;rounded=0;orthogonalLoop=1;jettySize=auto;html=1;entryX=1;entryY=0.25;entryDx=0;entryDy=0;entryPerimeter=0;endArrow=none;endFill=0;" edge="1" parent="1" source="nBfQ12rVYIrD_7408x3T-4" target="nBfQ12rVYIrD_7408x3T-14">
          <mxGeometry relative="1" as="geometry"/>
        </mxCell>
        <mxCell id="nBfQ12rVYIrD_7408x3T-4" value="Gestor Rutas" style="ellipse;shape=umlControl;whiteSpace=wrap;html=1;" parent="1" vertex="1">
          <mxGeometry x="540" y="290" width="70" height="80" as="geometry"/>
        </mxCell>
        <mxCell id="nBfQ12rVYIrD_7408x3T-18" style="edgeStyle=orthogonalEdgeStyle;rounded=0;orthogonalLoop=1;jettySize=auto;html=1;endArrow=none;endFill=0;strokeColor=#00CCCC;" parent="1" source="nBfQ12rVYIrD_7408x3T-5" target="nBfQ12rVYIrD_7408x3T-6" edge="1">
          <mxGeometry relative="1" as="geometry">
            <mxPoint x="130" y="280" as="targetPoint"/>
          </mxGeometry>
        </mxCell>
        <mxCell id="nBfQ12rVYIrD_7408x3T-5" value="IUClienteGPS" style="shape=umlBoundary;whiteSpace=wrap;html=1;" parent="1" vertex="1">
          <mxGeometry x="240" y="230" width="100" height="80" as="geometry"/>
        </mxCell>
        <mxCell id="nBfQ12rVYIrD_7408x3T-6" value="ClienteGPS" style="shape=umlActor;verticalLabelPosition=bottom;labelBackgroundColor=#ffffff;verticalAlign=top;html=1;outlineConnect=0;" parent="1" vertex="1">
          <mxGeometry x="110" y="240" width="30" height="60" as="geometry"/>
        </mxCell>
        <mxCell id="nBfQ12rVYIrD_7408x3T-7" value="Servicio Web EMA" style="shape=umlActor;verticalLabelPosition=bottom;labelBackgroundColor=#ffffff;verticalAlign=top;html=1;outlineConnect=0;" parent="1" vertex="1">
          <mxGeometry x="110" y="370" width="30" height="60" as="geometry"/>
        </mxCell>
        <mxCell id="nBfQ12rVYIrD_7408x3T-12" value="API Google Maps" style="shape=umlActor;verticalLabelPosition=bottom;labelBackgroundColor=#ffffff;verticalAlign=top;html=1;outlineConnect=0;" parent="1" vertex="1">
          <mxGeometry x="110" y="500" width="30" height="60" as="geometry"/>
        </mxCell>
        <mxCell id="nBfQ12rVYIrD_7408x3T-20" style="edgeStyle=orthogonalEdgeStyle;rounded=0;orthogonalLoop=1;jettySize=auto;html=1;endArrow=none;endFill=0;strokeColor=#00CCCC;" parent="1" source="nBfQ12rVYIrD_7408x3T-13" edge="1">
          <mxGeometry relative="1" as="geometry">
            <mxPoint x="140" y="400" as="targetPoint"/>
          </mxGeometry>
        </mxCell>
        <mxCell id="nBfQ12rVYIrD_7408x3T-13" value="IUServicio Web EMA" style="shape=umlBoundary;whiteSpace=wrap;html=1;" parent="1" vertex="1">
          <mxGeometry x="240" y="360" width="100" height="80" as="geometry"/>
        </mxCell>
        <mxCell id="nBfQ12rVYIrD_7408x3T-21" style="edgeStyle=orthogonalEdgeStyle;rounded=0;orthogonalLoop=1;jettySize=auto;html=1;endArrow=none;endFill=0;strokeColor=#00CCCC;" parent="1" source="nBfQ12rVYIrD_7408x3T-14" edge="1">
          <mxGeometry relative="1" as="geometry">
            <mxPoint x="140" y="530" as="targetPoint"/>
          </mxGeometry>
        </mxCell>
        <mxCell id="nBfQ12rVYIrD_7408x3T-14" value="IUAPI Google Maps" style="shape=umlBoundary;whiteSpace=wrap;html=1;" parent="1" vertex="1">
          <mxGeometry x="240" y="490" width="100" height="80" as="geometry"/>
        </mxCell>
        <mxCell id="by7-wM_vD5y1pT4y-xTU-5" value="" style="rounded=0;whiteSpace=wrap;html=1;fillColor=none;" vertex="1" parent="1">
          <mxGeometry x="190" y="80" width="500" height="530" as="geometry"/>
        </mxCell>
      </root>
    </mxGraphModel>
  </diagram>
</mxfile>
